<svg id="Capa_1" enable-background="new 0 0 512 512" height="512" viewBox="0 0 512 512" width="512" xmlns="http://www.w3.org/2000/svg"><g><g><g><g><path d="m197.361 131.562c-.428-.009-.851-.032-1.281-.032h-51.343c-34.267 0-62.046 27.779-62.046 62.046v42.898h114.669v-104.912z" fill="#e49542"/><path d="m196.08 131.529h-4.511v104.944h66.556v-42.898c.001-34.267-27.778-62.046-62.045-62.046z" fill="#e27d47"/><path d="m84.006 246.241v-52.738c0-33.3 27.092-60.391 60.392-60.391h52.022c33.3 0 60.392 27.091 60.392 60.391v52.738l28.323 2.06v-54.131c0-48.458-39.424-87.881-87.882-87.881h-53.689c-48.458 0-87.882 39.423-87.882 87.881v54.131z" fill="#6b61b1"/><path d="m274.566 227.676h-99.521-108.793c-8.948 0-16.202 7.254-16.202 16.202v31.541c0 8.948 7.254 16.202 16.202 16.202h108.793 99.521c8.948 0 16.202-7.254 16.202-16.202v-31.541c.001-8.948-7.253-16.202-16.202-16.202z" fill="#5e54ac"/><g><g><g><g><g><g><g><path d="m234.583 396.284-80.55-21.881h-22.838l-80.55 21.881c-29.894 8.121-50.645 35.26-50.645 66.239v36.317c0 7.173 5.815 12.989 12.989 12.989h272.24v-49.305c0-30.98-20.751-58.119-50.646-66.24z" fill="#b1e4f9"/><path d="m290.172 396.284-80.55-21.881h-65.174l80.55 21.881c29.895 8.121 50.646 35.26 50.646 66.239v49.305h52.185c7.174 0 12.989-5.815 12.989-12.989v-36.317c0-30.978-20.75-58.117-50.646-66.238z" fill="#90d8f9"/><path d="m209.623 374.403v-41.299h-78.427v41.299c0 21.657 39.213 30.272 39.213 30.272s39.214-8.615 39.214-30.272z" fill="#ffddce"/><path d="m197.361 272.258v-81.515c-21.672 6.396-45.071 4.914-65.94-4.452-1.998-.897-4.164-1.361-6.354-1.361-8.572 0-15.52 6.949-15.52 15.521v11.377c0 8.752-7.095 15.847-15.847 15.847v41.643c0 35.767 24.479 65.815 57.596 74.309 27.158-12.302 46.065-39.614 46.065-71.369z" fill="#ffddce"/><path d="m247.12 227.676c-8.752 0-15.847-7.095-15.847-15.847v-11.377c0-8.572-6.949-15.521-15.521-15.521-2.191 0-4.356.464-6.355 1.361-5.778 2.593-11.752 4.574-17.827 5.958v77.068c0 32.567-20.304 60.374-48.936 71.504 8.615 3.349 17.976 5.206 27.775 5.206 42.366 0 76.71-34.344 76.71-76.71z" fill="#ffcbbe"/></g></g><g><g><g><g><g><path d="m170.409 404.675 19.728 17.063c6.128 5.3 15.226 5.272 21.321-.066l40.76-35.698-12.157-18.179c-4.203-6.285-12.865-7.666-18.814-2.999z" fill="#e0f2ff"/></g></g></g></g><g><g><g><g><path d="m170.409 404.675-19.728 17.063c-6.128 5.3-15.226 5.272-21.321-.066l-40.76-35.698 12.157-18.179c4.203-6.285 12.865-7.666 18.814-2.999z" fill="#e0f2ff"/></g></g></g></g></g></g></g></g></g></g></g><g><path d="m432.139.172h-103.259c-12.379 0-22.414 10.035-22.414 22.414v87.493c0 12.379 10.035 22.414 22.414 22.414h9.701.001 4.984l5.323 4.522h30.734l5.838-4.522h8.51.001 38.168c12.379 0 22.414-10.035 22.414-22.414v-87.494c-.002-12.378-10.037-22.413-22.415-22.413z" fill="#95d6a4"/><g fill="#78c2a4"><path d="m342.517 137.362-9.54 44.476c-.531 2.477 2.492 4.12 4.282 2.328l47.984-48.055c2.314-2.317 5.454-3.619 8.728-3.619h-55.39c2.563 0 4.473 2.364 3.936 4.87z"/><path d="m489.586.172h-65.174c12.379 0 22.414 10.035 22.414 22.414v87.493c0 12.379-10.035 22.414-22.414 22.414h65.174c12.379 0 22.414-10.035 22.414-22.414v-87.494c0-12.379-10.035-22.413-22.414-22.413z"/></g><g><g><path d="m469.624 55.307h-120.248c-4.268 0-7.726-3.459-7.726-7.726s3.459-7.726 7.726-7.726h120.247c4.268 0 7.726 3.459 7.726 7.726s-3.458 7.726-7.725 7.726z" fill="#f0f7ff"/></g><g><path d="m469.624 91.363h-120.248c-4.268 0-7.726-3.459-7.726-7.726 0-4.268 3.459-7.726 7.726-7.726h120.247c4.268 0 7.726 3.459 7.726 7.726.001 4.267-3.458 7.726-7.725 7.726z" fill="#f0f7ff"/></g></g></g></g><g><path d="m56.317 511.828v-26.764c0-4.268-3.459-7.726-7.726-7.726s-7.726 3.459-7.726 7.726v26.764z" fill="#90d8f9"/><path d="m299.955 485.064c0-4.268-3.459-7.726-7.726-7.726s-7.726 3.459-7.726 7.726v26.764h15.453v-26.764z" fill="#75cef9"/></g></g></g></svg>